HIERARCHY
ROOT Hips
{
	OFFSET 0.000000 0.000000 0.000000
	CHANNELS 6 Xposition Yposition Zposition Zrotation Yrotation Xrotation 
	JOINT LowerBack
	{
		OFFSET 0.000000 0.000000 0.000000
		CHANNELS 3 Zrotation Yrotation Xrotation
		JOINT Spine
		{
			OFFSET 0.028270 2.035590 -0.193380
			CHANNELS 3 Zrotation Yrotation Xrotation
			JOINT Spine1
			{
				OFFSET 0.056720 2.048850 -0.042750
				CHANNELS 3 Zrotation Yrotation Xrotation
				JOINT Neck
				{
					OFFSET 0.000000 0.000000 0.000000
					CHANNELS 3 Zrotation Yrotation Xrotation
					JOINT Neck1
					{
						OFFSET -0.054170 1.746240 0.172020
						CHANNELS 3 Zrotation Yrotation Xrotation
						JOINT Head
						{
							OFFSET 0.104070 1.761360 -0.123970
							CHANNELS 3 Zrotation Yrotation Xrotation
							End Site
							{
								OFFSET 0.000000 0.000000 0.000000
							}
						}
					}
				}
				JOINT LeftShoulder
				{
					OFFSET 0.000000 0.000000 0.000000
					CHANNELS 3 Zrotation Yrotation Xrotation
					JOINT LeftArm
					{
						OFFSET 3.362410 1.200890 -0.311210
						CHANNELS 3 Zrotation Yrotation Xrotation
						JOINT LeftForeArm
						{
							OFFSET 4.983000 -0.000000 -0.000000
							CHANNELS 3 Zrotation Yrotation Xrotation
							JOINT LeftHand
							{
								OFFSET 3.483560 -0.000000 -0.000000
								CHANNELS 3 Zrotation Yrotation Xrotation
								JOINT LeftFingerBase
								{
									OFFSET 0.000000 0.000000 0.000000
									CHANNELS 3 Zrotation Yrotation Xrotation
									JOINT LeftHandIndex1
									{
										OFFSET 0.715260 -0.000000 -0.000000
										CHANNELS 3 Zrotation Yrotation Xrotation
										End Site
										{
											OFFSET 0.000000 0.000000 0.000000
										}
									}
								}
								JOINT LThumb
								{
									OFFSET 0.000000 0.000000 0.000000
									CHANNELS 3 Zrotation Yrotation Xrotation
									End Site
									{
										OFFSET 0.000000 0.000000 0.000000
									}
								}
							}
						}
					}
				}
				JOINT RightShoulder
				{
					OFFSET 0.000000 0.000000 0.000000
					CHANNELS 3 Zrotation Yrotation Xrotation
					JOINT RightArm
					{
						OFFSET -3.136600 1.374050 -0.404650
						CHANNELS 3 Zrotation Yrotation Xrotation
						JOINT RightForeArm
						{
							OFFSET -5.241900 -0.000000 -0.000000
							CHANNELS 3 Zrotation Yrotation Xrotation
							JOINT RightHand
							{
								OFFSET -3.444170 -0.000000 -0.000000
								CHANNELS 3 Zrotation Yrotation Xrotation
								JOINT RightFingerBase
								{
									OFFSET 0.000000 0.000000 0.000000
									CHANNELS 3 Zrotation Yrotation Xrotation
									JOINT RightHandIndex1
									{
										OFFSET -0.622530 -0.000000 -0.000000
										CHANNELS 3 Zrotation Yrotation Xrotation
										End Site
										{
											OFFSET 0.000000 0.000000 0.000000
										}
									}
								}
								JOINT RThumb
								{
									OFFSET 0.000000 0.000000 0.000000
									CHANNELS 3 Zrotation Yrotation Xrotation
									End Site
									{
										OFFSET 0.000000 0.000000 0.000000
									}
								}
							}
						}
					}
				}
			}
		}
	}
}
}
MOTION
Frames: 15
Frame Time: 0.008333
1.218197 17.477220 0.711473 178.023844 -58.506242 -158.500501 -2.056258 -8.913314 -10.127085 -0.545522 -8.778960 -3.893300 -7.796244 -8.661878 1.515823 20.453393 -17.169130 -7.991492 -0.931799 -0.060104 -0.019972 0.000000 0.000000 0.000000 26.918836 -13.171768 4.651428 -2.751335 -26.069168 -36.671426 -2.918280 4.060264 -0.033660 -7.097449 18.180735 -1.133179 -0.069562 -0.098909 -0.000000 0.000000 0.000000 0.000000 0.000000 0.000000 0.000000 11.007238 -20.098756 -3.532686 79.974493 28.508847 35.433604 -177.946098 54.992210 179.709401 -39.416036 36.853270 -14.520079 0.857228 -1.640342 -0.000000 0.000000 0.000000 0.000000 0.000000 0.000000 0.000000 
1.216347 17.471687 0.709918 178.246795 -57.748021 -159.089724 -1.700878 -8.656807 -10.061651 -0.492461 -8.557392 -3.845499 -7.786708 -8.430039 1.801739 19.851494 -17.374462 -8.126143 -0.917230 -0.056311 -0.059185 0.000000 0.000000 0.000000 26.296571 -11.837330 4.752642 -4.479853 -27.224960 -35.505787 -3.143107 2.628849 -0.028010 -10.720624 20.402092 -1.942202 -0.023860 -0.112863 -0.000000 0.000000 0.000000 0.000000 0.000000 0.000000 0.000000 10.182612 -20.213835 -3.611166 80.512843 27.867513 35.496123 -177.869487 54.850310 179.706342 -38.378297 36.640952 -14.033997 0.832523 -1.642857 -0.000000 0.000000 0.000000 0.000000 0.000000 0.000000 0.000000 
1.215398 17.465412 0.708605 178.433914 -57.014668 -159.651755 -1.347207 -8.396799 -9.958253 -0.437894 -8.332294 -3.797303 -7.771857 -8.195033 2.048368 19.248368 -17.549362 -8.245436 -0.907852 -0.053239 -0.093886 0.000000 0.000000 0.000000 25.496149 -10.614701 4.846672 -6.163529 -28.050549 -34.184515 -3.242278 0.447352 -0.023344 -12.861107 21.794211 -2.498086 -0.005063 -0.104767 -0.000000 0.000000 0.000000 0.000000 0.000000 0.000000 0.000000 9.344060 -20.248906 -3.677168 81.000858 27.161991 35.469278 -177.792021 54.663043 179.702995 -37.356678 36.408384 -13.553116 0.808044 -1.645894 -0.000000 0.000000 0.000000 0.000000 0.000000 0.000000 0.000000 
1.214971 17.458457 0.707819 178.585097 -56.323891 -160.176384 -0.998848 -8.143889 -9.820408 -0.384018 -8.114269 -3.752220 -7.758987 -7.968108 2.239836 18.659518 -17.683422 -8.336314 -0.903174 -0.051130 -0.120214 0.000000 0.000000 0.000000 24.506427 -9.556136 4.918439 -7.736006 -28.497979 -32.898559 -3.193798 -2.340323 -0.018665 -13.325915 22.363663 -2.654910 -0.005133 -0.079883 -0.000000 0.000000 0.000000 0.000000 0.000000 0.000000 0.000000 8.510732 -20.192108 -3.724630 81.419604 26.397855 35.356912 -177.712973 54.441091 179.699372 -36.406155 36.167213 -13.102621 0.784761 -1.649098 -0.000000 0.000000 0.000000 0.000000 0.000000 0.000000 0.000000 
1.214918 17.450844 0.707615 178.696363 -55.687594 -160.654818 -0.656993 -7.905552 -9.655182 -0.332479 -7.910655 -3.714492 -7.753644 -7.757279 2.362302 18.092124 -17.770103 -8.385776 -0.904256 -0.050327 -0.134393 0.000000 0.000000 0.000000 23.328390 -8.679932 4.943847 -9.157237 -28.577478 -31.745816 -2.991336 -5.574332 -0.014220 -12.059340 22.044442 -2.358264 -0.018722 -0.039219 -0.000000 0.000000 0.000000 0.000000 0.000000 0.000000 0.000000 7.696139 -20.040132 -3.747749 81.758852 25.585660 35.172546 -177.633268 54.199906 179.695501 -35.577563 35.929762 -12.705200 0.763778 -1.652246 -0.000000 0.000000 0.000000 0.000000 0.000000 0.000000 0.000000 
1.214761 17.442577 0.708021 178.768678 -55.114406 -161.079952 -0.318793 -7.684456 -9.475854 -0.283922 -7.724137 -3.688777 -7.759809 -7.565833 2.408133 17.543156 -17.808224 -8.384346 -0.912927 -0.051145 -0.133754 0.000000 0.000000 0.000000 21.970328 -7.969376 4.896635 -10.408429 -28.351641 -30.731764 -2.651464 -9.104915 -0.011945 -9.204841 20.712577 -1.676346 -0.043252 0.019352 0.000000 0.000000 0.000000 0.000000 0.000000 0.000000 0.000000 6.903606 -19.803634 -3.742537 82.018529 24.738949 34.937334 -177.554208 53.956374 179.691387 -34.914475 35.709508 -12.380339 0.746163 -1.655227 -0.000000 0.000000 0.000000 0.000000 0.000000 0.000000 0.000000 
1.214110 17.433639 0.709041 -179.901936 -54.333618 -160.330568 0.922944 -7.178508 -11.335635 -0.075229 -7.449577 -3.976204 -7.847269 -7.270596 2.552086 16.987365 -17.821455 -8.388091 -0.937819 -0.053602 -0.130904 0.000000 0.000000 0.000000 20.427526 -7.263788 4.734126 -11.516148 -28.003742 -29.840369 -2.210032 -12.846853 -0.015220 -5.134560 18.301546 -0.810938 -0.076671 0.098341 -0.000000 0.000000 0.000000 0.000000 0.000000 0.000000 0.000000 6.081865 -19.480847 -3.715030 82.196390 23.903203 34.704634 -177.486598 53.714132 179.688096 -34.443638 35.516487 -12.139773 0.734649 -1.658666 -0.000000 0.000000 0.000000 0.000000 0.000000 0.000000 0.000000 
1.212685 17.424026 0.710446 178.803161 -54.185443 -161.761174 0.363951 -7.277939 -9.130811 -0.195462 -7.386992 -3.683532 -7.817225 -7.226726 2.291338 16.461898 -17.759726 -8.229450 -0.960675 -0.058063 -0.089067 0.000000 0.000000 0.000000 18.800823 -6.825676 4.523817 -12.424750 -27.461714 -29.144928 -1.738638 -16.571459 -0.027610 -0.416917 14.932512 -0.039388 -0.114014 0.191391 -0.000000 0.000000 0.000000 0.000000 0.000000 0.000000 0.000000 5.378002 -19.190595 -3.648846 82.344872 23.014861 34.415960 -177.405194 53.521050 179.682786 -34.179324 35.355121 -11.986858 0.724280 -1.660266 -0.000000 0.000000 0.000000 0.000000 0.000000 0.000000 0.000000 
1.210343 17.413790 0.712075 178.766374 -53.836226 -162.013949 0.710976 -7.078891 -8.988955 -0.154519 -7.223209 -3.701600 -7.867074 -7.065676 2.169490 15.916722 -17.694164 -8.103637 -0.998371 -0.063440 -0.053396 0.000000 0.000000 0.000000 17.068532 -6.244729 4.214807 -13.287994 -27.062244 -28.633050 -1.284898 -20.400290 -0.048909 4.316755 10.986960 0.417791 -0.146484 0.289199 -0.000000 0.000000 0.000000 0.000000 0.000000 0.000000 0.000000 4.642526 -18.885692 -3.573423 82.442022 22.183371 34.174907 -177.337832 53.347564 179.678603 -34.106767 35.223949 -11.915635 0.720602 -1.661904 -0.000000 0.000000 0.000000 0.000000 0.000000 0.000000 0.000000 
1.206945 17.403033 0.713679 178.699576 -53.560962 -162.207730 1.055911 -6.878862 -8.878370 -0.114326 -7.059026 -3.728011 -7.922212 -6.906321 2.042039 15.375005 -17.618025 -7.978063 -1.038607 -0.068943 -0.018132 0.000000 0.000000 0.000000 15.307407 -5.572091 3.863206 -14.172846 -26.797524 -28.297152 -0.898293 -24.331760 -0.075481 8.571188 7.005133 0.506907 -0.166556 0.375673 0.000000 0.000000 0.000000 0.000000 0.000000 0.000000 0.000000 3.928630 -18.614581 -3.493839 82.508626 21.406824 33.968273 -177.276205 53.208916 179.674741 -34.197295 35.119695 -11.912964 0.721174 -1.662644 -0.000000 0.000000 0.000000 0.000000 0.000000 0.000000 0.000000 
1.202418 17.391874 0.715173 178.614036 -53.354035 -162.347777 1.388316 -6.681908 -8.798384 -0.074164 -6.898048 -3.758190 -7.972599 -6.751898 1.928166 14.852440 -17.544137 -7.874617 -1.074793 -0.073680 0.010724 0.000000 0.000000 0.000000 13.576947 -4.783172 3.497407 -15.180734 -26.653201 -28.057675 -0.597592 -28.439202 -0.102289 12.115062 3.425188 0.321373 -0.172956 0.441525 -0.000000 0.000000 0.000000 0.000000 0.000000 0.000000 0.000000 3.243619 -18.382677 -3.419300 82.545398 20.708403 33.803188 -177.221904 53.103466 179.671337 -34.404861 35.031959 -11.958259 0.725051 -1.662407 -0.000000 0.000000 0.000000 0.000000 0.000000 0.000000 0.000000 
1.196994 17.380526 0.716196 178.512751 -53.208108 -162.432477 1.695242 -6.493924 -8.748361 -0.034390 -6.745338 -3.789853 -8.009568 -6.607091 1.834928 14.364042 -17.482072 -7.804358 -1.102986 -0.077182 0.030343 0.000000 0.000000 0.000000 11.935706 -3.897086 3.135172 -16.400323 -26.550708 -27.811623 -0.382696 -32.797576 -0.125824 14.927001 0.514566 0.004189 -0.169936 0.485653 -0.000000 0.000000 0.000000 0.000000 0.000000 0.000000 0.000000 2.595784 -18.184562 -3.353544 82.549469 20.099581 33.677750 -177.178739 53.028711 179.668546 -34.667800 34.954427 -12.026730 0.730911 -1.661502 -0.000000 0.000000 0.000000 0.000000 0.000000 0.000000 0.000000 
1.190835 17.369186 0.716814 178.407893 -53.118061 -162.473029 1.964815 -6.317834 -8.721428 0.003579 -6.602854 -3.821276 -8.028000 -6.473323 1.760822 13.922547 -17.440269 -7.769198 -1.122794 -0.079415 0.040395 0.000000 0.000000 0.000000 10.445163 -2.955671 2.782849 -17.908187 -26.409778 -27.489482 -0.243819 -37.435964 -0.144558 17.076257 -1.680468 -0.331845 -0.163010 0.512685 -0.000000 0.000000 0.000000 0.000000 0.000000 0.000000 0.000000 1.996510 -18.013013 -3.295719 82.512731 19.581707 33.582103 -177.150244 52.979273 179.666432 -34.936330 34.869235 -12.094279 0.737952 -1.660091 -0.000000 0.000000 0.000000 0.000000 0.000000 0.000000 0.000000 
1.184029 17.358023 0.716831 178.306434 -53.080363 -162.471556 2.186607 -6.154013 -8.717342 0.037231 -6.470196 -3.853259 -8.028605 -6.349584 1.698661 13.534428 -17.421048 -7.761269 -1.137315 -0.080783 0.043277 0.000000 0.000000 0.000000 9.149277 -2.032333 2.443846 -19.738857 -26.121480 -27.034041 -0.169310 -42.373142 -0.158553 18.679856 -3.204365 -0.618432 -0.156839 0.528159 -0.000000 0.000000 0.000000 0.000000 0.000000 0.000000 0.000000 1.454586 -17.858653 -3.241005 82.431053 19.142256 33.499698 -177.140557 52.946970 179.665077 -35.150649 34.770866 -12.137410 0.745066 -1.658835 -0.000000 0.000000 0.000000 0.000000 0.000000 0.000000 0.000000 
1.176958 17.347204 0.716122 178.210212 -53.093270 -162.431118 2.351547 -5.999736 -8.734954 0.063594 -6.343850 -3.886944 -8.014609 -6.231736 1.639126 13.202728 -17.425467 -7.768381 -1.151490 -0.081898 0.042529 0.000000 0.000000 0.000000 8.082423 -1.210276 2.119044 -21.898704 -25.588302 -26.428008 -0.146304 -47.593790 -0.168398 19.842381 -4.180905 -0.831067 -0.154082 0.536788 -0.000000 0.000000 0.000000 0.000000 0.000000 0.000000 0.000000 0.978777 -17.714489 -3.182821 82.300590 18.761474 33.411384 -177.152272 52.921389 179.664515 -35.266055 34.646854 -12.135924 0.751635 -1.658188 -0.000000 0.000000 0.000000 0.000000 0.000000 0.000000 0.000000 
